<svg width="32" height="16" viewBox="0 0 32 16" fill="none" xmlns="http://www.w3.org/2000/svg">
<path d="M0.268656 0.271251C0.0980148 0.431351 0.00142095 0.648905 3.62013e-05 0.876248C-0.0010796 0.989077 0.0221672 1.10093 0.0683574 1.20496C0.114546 1.30899 0.182705 1.40301 0.268656 1.48124L15.3498 15.7471C15.4334 15.8272 15.533 15.8908 15.6427 15.9342C15.7525 15.9776 15.8704 16 15.9894 16C16.1084 16 16.2262 15.9776 16.336 15.9342C16.4458 15.8908 16.5453 15.8272 16.6289 15.7471L31.7132 1.48125C31.8019 1.40281 31.8729 1.3083 31.9222 1.20335C31.9714 1.0984 31.9979 0.985148 31.9999 0.870341C32.0019 0.755534 31.9795 0.641516 31.934 0.53507C31.8885 0.428625 31.8208 0.331929 31.7349 0.250737C31.6491 0.169545 31.5469 0.105516 31.4344 0.0624611C31.3218 0.019406 31.2013 -0.00179518 31.0799 0.000118926C30.9586 0.00203303 30.8388 0.0270234 30.7279 0.0736029C30.6169 0.120182 30.517 0.187399 30.4341 0.271253L15.9894 13.9321L1.5478 0.271251C1.46399 0.191497 1.36434 0.128205 1.25458 0.0850158C1.14482 0.0418265 1.02711 0.0195921 0.908228 0.0195921C0.789347 0.0195921 0.671642 0.0418264 0.56188 0.0850158C0.452116 0.128205 0.352465 0.191497 0.268656 0.271251Z" fill="#333333"/>
</svg>
