<svg width="270" height="270" viewBox="0 0 270 270" fill="none" xmlns="http://www.w3.org/2000/svg">
<g filter="url(#filter0_d)">
<circle cx="135" cy="135" r="125" fill="#F0F0F0"/>
</g>
<mask id="mask0" mask-type="alpha" maskUnits="userSpaceOnUse" x="10" y="10" width="250" height="250">
<circle cx="135" cy="135" r="125" fill="#F0F0F0"/>
</mask>
<g mask="url(#mask0)">
<path d="M135 9C66.0745 9 9.99951 65.075 9.99951 134C9.99951 164.188 20.7578 191.908 38.6412 213.533C38.687 213.596 38.6912 213.675 38.7412 213.733C51.6537 229.304 67.8703 241.242 85.9412 248.954C86.1495 249.042 86.3537 249.137 86.562 249.225C88.0245 249.842 89.5037 250.413 90.987 250.971C91.5703 251.192 92.1537 251.417 92.7453 251.629C94.0245 252.087 95.312 252.521 96.6078 252.937C97.437 253.204 98.2662 253.467 99.1037 253.717C100.25 254.058 101.4 254.387 102.558 254.7C103.575 254.975 104.6 255.229 105.625 255.475C106.662 255.725 107.704 255.975 108.75 256.196C109.916 256.446 111.095 256.667 112.279 256.883C113.229 257.058 114.175 257.242 115.133 257.396C116.445 257.608 117.766 257.775 119.091 257.946C119.945 258.054 120.795 258.179 121.654 258.271C123.154 258.429 124.666 258.542 126.183 258.646C126.887 258.696 127.587 258.771 128.295 258.808C130.508 258.933 132.745 259 135 259C137.254 259 139.491 258.933 141.712 258.817C142.42 258.779 143.12 258.704 143.825 258.654C145.341 258.546 146.854 258.437 148.354 258.279C149.212 258.187 150.062 258.062 150.916 257.954C152.241 257.783 153.562 257.617 154.875 257.404C155.829 257.25 156.779 257.067 157.729 256.892C158.908 256.675 160.087 256.454 161.258 256.204C162.304 255.979 163.341 255.733 164.383 255.483C165.408 255.233 166.433 254.979 167.449 254.708C168.608 254.4 169.758 254.067 170.904 253.725C171.741 253.475 172.57 253.212 173.4 252.946C174.695 252.529 175.983 252.096 177.262 251.637C177.85 251.425 178.433 251.2 179.02 250.979C180.508 250.421 181.983 249.846 183.445 249.233C183.654 249.146 183.858 249.05 184.066 248.962C202.133 241.25 218.354 229.312 231.266 213.742C231.316 213.683 231.32 213.6 231.366 213.542C249.241 191.908 259.999 164.188 259.999 134C259.999 65.075 203.924 9 135 9ZM185.654 239.083C185.591 239.113 185.533 239.146 185.47 239.175C183.983 239.892 182.47 240.567 180.945 241.225C180.6 241.371 180.258 241.521 179.912 241.667C178.579 242.225 177.229 242.754 175.87 243.262C175.304 243.475 174.737 243.683 174.166 243.883C172.962 244.312 171.754 244.725 170.533 245.117C169.775 245.358 169.012 245.587 168.249 245.812C167.166 246.137 166.079 246.45 164.979 246.742C164.054 246.987 163.12 247.212 162.187 247.433C161.208 247.667 160.233 247.904 159.245 248.112C158.166 248.342 157.079 248.537 155.995 248.733C155.116 248.896 154.241 249.067 153.354 249.208C152.133 249.4 150.9 249.554 149.67 249.708C148.891 249.808 148.116 249.925 147.329 250.008C145.924 250.158 144.508 250.254 143.095 250.354C142.466 250.396 141.841 250.467 141.204 250.5C139.141 250.608 137.075 250.667 135 250.667C132.925 250.667 130.858 250.608 128.8 250.5C128.166 250.467 127.541 250.4 126.908 250.354C125.491 250.258 124.079 250.158 122.675 250.008C121.887 249.925 121.112 249.808 120.333 249.708C119.104 249.554 117.87 249.4 116.65 249.208C115.762 249.067 114.887 248.896 114.008 248.733C112.92 248.537 111.833 248.337 110.758 248.112C109.77 247.904 108.791 247.667 107.816 247.433C106.883 247.208 105.95 246.987 105.025 246.742C103.929 246.45 102.837 246.133 101.754 245.812C100.991 245.587 100.229 245.358 99.4703 245.117C98.2495 244.725 97.037 244.312 95.837 243.883C95.2662 243.679 94.6995 243.471 94.1328 243.262C92.7745 242.754 91.4245 242.225 90.0912 241.667C89.7453 241.525 89.4078 241.375 89.062 241.229C87.537 240.575 86.0245 239.896 84.5328 239.179C84.4703 239.15 84.412 239.121 84.3495 239.087C69.812 232.054 56.9703 222.071 46.5495 209.946C54.6037 180.287 77.4037 156.379 106.737 146.867C107.316 147.221 107.92 147.537 108.516 147.871C108.866 148.067 109.212 148.275 109.566 148.462C110.808 149.121 112.066 149.737 113.354 150.292C114.341 150.725 115.362 151.092 116.379 151.467C116.579 151.538 116.779 151.617 116.979 151.687C122.629 153.687 128.675 154.833 135 154.833C141.325 154.833 147.37 153.687 153.016 151.687C153.216 151.617 153.416 151.538 153.616 151.467C154.633 151.092 155.654 150.725 156.641 150.292C157.929 149.737 159.187 149.121 160.429 148.462C160.783 148.271 161.129 148.067 161.479 147.871C162.075 147.537 162.683 147.221 163.266 146.863C192.6 156.379 215.395 180.288 223.454 209.942C213.033 222.062 200.191 232.046 185.654 239.083ZM89.1662 100.667C89.1662 75.3958 109.729 54.8333 135 54.8333C160.27 54.8333 180.833 75.3958 180.833 100.667C180.833 116.742 172.495 130.887 159.933 139.071C158.291 140.137 156.583 141.092 154.829 141.925C154.62 142.025 154.416 142.129 154.208 142.225C142.141 147.712 127.858 147.712 115.791 142.225C115.583 142.129 115.375 142.025 115.17 141.925C113.412 141.092 111.708 140.137 110.066 139.071C97.5037 130.887 89.1662 116.742 89.1662 100.667ZM229.704 202.012C220.258 174.121 198.708 151.579 171.174 140.871C182.187 130.95 189.166 116.625 189.166 100.667C189.166 70.8 164.866 46.5 135 46.5C105.133 46.5 80.8328 70.8 80.8328 100.667C80.8328 116.625 87.812 130.95 98.8287 140.871C71.2953 151.583 49.7453 174.121 40.2995 202.012C26.4953 182.85 18.3328 159.367 18.3328 134C18.3328 69.6708 70.6703 17.3333 135 17.3333C199.329 17.3333 251.666 69.6708 251.666 134C251.666 159.367 243.504 182.85 229.704 202.012Z" fill="#333333" fill-opacity="0.5"/>
</g>
<path d="M135 10C66.075 10 10 66.075 10 135C10 165.188 20.7583 192.908 38.6417 214.533C38.6875 214.596 38.6917 214.675 38.7417 214.733C51.6542 230.304 67.8708 242.242 85.9417 249.954C86.15 250.042 86.3542 250.137 86.5625 250.225C88.025 250.842 89.5042 251.413 90.9875 251.971C91.5708 252.192 92.1542 252.417 92.7458 252.629C94.025 253.087 95.3125 253.521 96.6083 253.937C97.4375 254.204 98.2667 254.467 99.1042 254.717C100.25 255.058 101.4 255.387 102.558 255.7C103.575 255.975 104.6 256.229 105.625 256.475C106.662 256.725 107.704 256.975 108.75 257.196C109.917 257.446 111.096 257.667 112.279 257.883C113.229 258.058 114.175 258.242 115.133 258.396C116.446 258.608 117.767 258.775 119.092 258.946C119.946 259.054 120.796 259.179 121.654 259.271C123.154 259.429 124.667 259.542 126.183 259.646C126.887 259.696 127.588 259.771 128.296 259.808C130.508 259.933 132.746 260 135 260C137.254 260 139.492 259.933 141.712 259.817C142.421 259.779 143.121 259.704 143.825 259.654C145.342 259.546 146.854 259.437 148.354 259.279C149.213 259.187 150.062 259.062 150.917 258.954C152.242 258.783 153.562 258.617 154.875 258.404C155.829 258.25 156.779 258.067 157.729 257.892C158.908 257.675 160.087 257.454 161.258 257.204C162.304 256.979 163.342 256.733 164.383 256.483C165.408 256.233 166.433 255.979 167.45 255.708C168.608 255.4 169.758 255.067 170.904 254.725C171.742 254.475 172.571 254.212 173.4 253.946C174.696 253.529 175.983 253.096 177.262 252.637C177.85 252.425 178.433 252.2 179.021 251.979C180.508 251.421 181.983 250.846 183.446 250.233C183.654 250.146 183.858 250.05 184.067 249.962C202.133 242.25 218.354 230.312 231.267 214.742C231.317 214.683 231.321 214.6 231.367 214.542C249.242 192.908 260 165.188 260 135C260 66.075 203.925 10 135 10ZM185.654 240.083C185.592 240.113 185.533 240.146 185.471 240.175C183.983 240.892 182.471 241.567 180.946 242.225C180.6 242.371 180.258 242.521 179.912 242.667C178.579 243.225 177.229 243.754 175.871 244.262C175.304 244.475 174.738 244.683 174.167 244.883C172.962 245.312 171.754 245.725 170.533 246.117C169.775 246.358 169.012 246.587 168.25 246.812C167.167 247.137 166.079 247.45 164.979 247.742C164.054 247.987 163.121 248.212 162.188 248.433C161.208 248.667 160.233 248.904 159.246 249.112C158.167 249.342 157.079 249.537 155.996 249.733C155.117 249.896 154.242 250.067 153.354 250.208C152.133 250.4 150.9 250.554 149.671 250.708C148.892 250.808 148.117 250.925 147.329 251.008C145.925 251.158 144.508 251.254 143.096 251.354C142.467 251.396 141.842 251.467 141.204 251.5C139.142 251.608 137.075 251.667 135 251.667C132.925 251.667 130.858 251.608 128.8 251.5C128.167 251.467 127.542 251.4 126.908 251.354C125.492 251.258 124.079 251.158 122.675 251.008C121.887 250.925 121.112 250.808 120.333 250.708C119.104 250.554 117.871 250.4 116.65 250.208C115.762 250.067 114.887 249.896 114.008 249.733C112.921 249.537 111.833 249.337 110.758 249.112C109.771 248.904 108.792 248.667 107.817 248.433C106.883 248.208 105.95 247.987 105.025 247.742C103.929 247.45 102.837 247.133 101.754 246.812C100.992 246.587 100.229 246.358 99.4708 246.117C98.25 245.725 97.0375 245.312 95.8375 244.883C95.2667 244.679 94.7 244.471 94.1333 244.262C92.775 243.754 91.425 243.225 90.0917 242.667C89.7458 242.525 89.4083 242.375 89.0625 242.229C87.5375 241.575 86.025 240.896 84.5333 240.179C84.4708 240.15 84.4125 240.121 84.35 240.087C69.8125 233.054 56.9708 223.071 46.55 210.946C54.6042 181.287 77.4042 157.379 106.737 147.867C107.317 148.221 107.921 148.537 108.517 148.871C108.867 149.067 109.212 149.275 109.567 149.462C110.808 150.121 112.067 150.737 113.354 151.292C114.342 151.725 115.362 152.092 116.379 152.467C116.579 152.538 116.779 152.617 116.979 152.687C122.629 154.687 128.675 155.833 135 155.833C141.325 155.833 147.371 154.687 153.017 152.687C153.217 152.617 153.417 152.538 153.617 152.467C154.633 152.092 155.654 151.725 156.642 151.292C157.929 150.737 159.188 150.121 160.429 149.462C160.783 149.271 161.129 149.067 161.479 148.871C162.075 148.537 162.683 148.221 163.267 147.863C192.6 157.379 215.396 181.288 223.454 210.942C213.033 223.062 200.192 233.046 185.654 240.083ZM89.1667 101.667C89.1667 76.3958 109.729 55.8333 135 55.8333C160.271 55.8333 180.833 76.3958 180.833 101.667C180.833 117.742 172.496 131.887 159.933 140.071C158.292 141.137 156.583 142.092 154.829 142.925C154.621 143.025 154.417 143.129 154.208 143.225C142.142 148.712 127.858 148.712 115.792 143.225C115.583 143.129 115.375 143.025 115.171 142.925C113.412 142.092 111.708 141.137 110.067 140.071C97.5042 131.887 89.1667 117.742 89.1667 101.667ZM229.704 203.012C220.258 175.121 198.708 152.579 171.175 141.871C182.187 131.95 189.167 117.625 189.167 101.667C189.167 71.8 164.867 47.5 135 47.5C105.133 47.5 80.8333 71.8 80.8333 101.667C80.8333 117.625 87.8125 131.95 98.8292 141.871C71.2958 152.583 49.7458 175.121 40.3 203.012C26.4958 183.85 18.3333 160.367 18.3333 135C18.3333 70.6708 70.6708 18.3333 135 18.3333C199.329 18.3333 251.667 70.6708 251.667 135C251.667 160.367 243.504 183.85 229.704 203.012Z" fill="#333333"/>
<defs>
<filter id="filter0_d" x="0" y="0" width="270" height="270" filterUnits="userSpaceOnUse" color-interpolation-filters="sRGB">
<feFlood flood-opacity="0" result="BackgroundImageFix"/>
<feColorMatrix in="SourceAlpha" type="matrix" values="0 0 0 0 0 0 0 0 0 0 0 0 0 0 0 0 0 0 127 0"/>
<feOffset/>
<feGaussianBlur stdDeviation="5"/>
<feColorMatrix type="matrix" values="0 0 0 0 0 0 0 0 0 0 0 0 0 0 0 0 0 0 0.15 0"/>
<feBlend mode="normal" in2="BackgroundImageFix" result="effect1_dropShadow"/>
<feBlend mode="normal" in="SourceGraphic" in2="effect1_dropShadow" result="shape"/>
</filter>
</defs>
</svg>
