<svg xmlns:dc="http://purl.org/dc/elements/1.1/" xmlns:cc="http://creativecommons.org/ns#" xmlns:rdf="http://www.w3.org/1999/02/22-rdf-syntax-ns#" xmlns:svg="http://www.w3.org/2000/svg" xmlns="http://www.w3.org/2000/svg" xmlns:sodipodi="http://sodipodi.sourceforge.net/DTD/sodipodi-0.dtd" xmlns:inkscape="http://www.inkscape.org/namespaces/inkscape" version="1.1" x="0px" y="0px" viewBox="0 0 100 125"><g transform="translate(0,-952.36218)"><path style="text-indent:0;text-transform:none;direction:ltr;block-progression:tb;baseline-shift:baseline;color:#000000;enable-background:accumulate;" d="m 35.812167,963.36218 c -0.983157,0.0927 -1.816738,1.01249 -1.81248,2 l 0,8 -23.9997317,0 c -1.1666869,-6e-5 -2.0913156,0.4948 -2.7812189,1.1875 -0.6899033,0.6927 -1.2187358,1.64777 -1.2187364,2.8125 -4.907e-4,19.7138 0,38.46432 0,58.96872 3e-7,1.3416 0.3723635,2.7101 1.343735,3.6875 0.9713714,0.9775 2.3228295,1.3438 3.656209,1.3438 l 77.999128,0 c 1.333318,0 2.684816,-0.3723 3.656209,-1.3438 0.971393,-0.9714 1.343734,-2.3229 1.343735,-3.6562 l 0,-38.31252 c 7.32e-4,-0.0312 7.32e-4,-0.0625 0,-0.0937 0.0017,-6.87394 0,-13.72583 0,-20.59375 -10e-7,-1.16667 -0.529461,-2.12323 -1.218736,-2.8125 -0.689276,-0.68927 -1.614532,-1.18756 -2.781219,-1.1875 l -23.999732,0 0,-8 c -1.05e-4,-1.04717 -0.95282,-1.99989 -1.999977,-2 -9.390792,0 -18.810015,0 -28.187185,0 z m 2.187475,4 23.999732,0 0,6 -23.999732,0 z m -27.9996867,10 c 26.6663687,0 53.3327367,0 79.9991057,0 -0.0011,6.7989 0,13.57656 0,20.375 -0.230563,1.40058 -1.455172,2.79322 -3.531211,3.87502 -2.107397,1.0981 -4.942694,1.769 -7.468666,1.75 l -21.999754,0 0,-4.00002 c 3e-6,-1.05556 -0.407629,-1.94541 -0.999989,-2.65625 -0.59236,-0.71084 -1.439551,-1.34378 -2.65622,-1.34375 l -6.687426,0 c -1.216669,-3e-5 -2.063859,0.63291 -2.65622,1.34375 -0.59236,0.71084 -0.999989,1.60069 -0.999989,2.65625 l 0,4.00002 -21.999754,0 c -2.525971,0.019 -5.361269,-0.6519 -7.468666,-1.75 -2.076039,-1.0818 -3.300648,-2.47444 -3.5312107,-3.87502 0.00153,-6.7967 0,-13.57418 0,-20.375 z m 36.9995867,22 5.999933,0 0,12.00002 -5.999933,0 z m -36.9995867,4.78122 c 0.5380857,0.381 1.1004547,0.7254 1.6874807,1.0313 2.797209,1.4576 6.114249,2.2115 9.312396,2.1875 l 21.999754,0 0,4 c 0,1.0556 0.407634,1.9454 0.999989,2.6562 0.592356,0.7109 1.439567,1.3438 2.65622,1.3438 l 6.687426,0 c 1.216653,0 2.063865,-0.6329 2.65622,-1.3438 0.592355,-0.7108 0.999992,-1.6006 0.999989,-2.6562 l 0,-4 21.999754,0 c 3.198147,0.024 6.515188,-0.7299 9.312396,-2.1875 0.587026,-0.3059 1.149395,-0.6503 1.687481,-1.0313 l 0,32.2188 c 0,0.6667 -0.127653,0.7839 -0.156248,0.8125 -0.0286,0.029 -0.177081,0.1875 -0.843741,0.1875 l -77.999128,0 c -0.666781,0 -0.815169,-0.1587 -0.84374,-0.1875 -0.02857,-0.029 -0.1562487,-0.1605 -0.1562487,-0.8438 z" fill="#000000" fill-opacity="1" stroke="none" marker="none" visibility="visible" display="inline" overflow="visible"/></g><text x="0" y="115" fill="#000000" font-size="5px" font-weight="bold" font-family="'Helvetica Neue', Helvetica, Arial-Unicode, Arial, Sans-serif">Created by hafiudin</text><text x="0" y="120" fill="#000000" font-size="5px" font-weight="bold" font-family="'Helvetica Neue', Helvetica, Arial-Unicode, Arial, Sans-serif">from the Noun Project</text></svg>