<svg xmlns="http://www.w3.org/2000/svg" xmlns:xlink="http://www.w3.org/1999/xlink" version="1.1" x="0px" y="0px" viewBox="0 0 100 125" enable-background="new 0 0 100 100" xml:space="preserve"><g><path d="M72.75,16.083h-9h-2.952H27.25c-3.032,0-5.5,2.467-5.5,5.5v56.834c0,3.032,2.468,5.5,5.5,5.5h32.155h4.345h9   c3.032,0,5.5-2.468,5.5-5.5V21.583C78.25,18.55,75.782,16.083,72.75,16.083z M66.25,78.417c0,1.379-1.121,2.5-2.5,2.5h-4.345H27.25   c-1.378,0-2.5-1.121-2.5-2.5V21.583c0-1.378,1.122-2.5,2.5-2.5h32.918h3.582c1.379,0,2.5,1.122,2.5,2.5V78.417z M75.25,78.417   c0,1.379-1.121,2.5-2.5,2.5h-4.107c0.386-0.751,0.607-1.6,0.607-2.5v-0.895c0.176,0.038,0.356,0.061,0.542,0.061   c1.543,0,2.792-1.379,2.792-3.082s-1.249-3.084-2.792-3.084c-0.186,0-0.366,0.022-0.542,0.061V61.189   c0.176,0.038,0.356,0.061,0.542,0.061c1.543,0,2.792-1.38,2.792-3.083s-1.249-3.084-2.792-3.084c-0.186,0-0.366,0.022-0.542,0.061   V44.856c0.176,0.038,0.356,0.061,0.542,0.061c1.543,0,2.792-1.381,2.792-3.084s-1.249-3.083-2.792-3.083   c-0.186,0-0.366,0.022-0.542,0.061V28.522c0.176,0.039,0.356,0.061,0.542,0.061c1.543,0,2.792-1.38,2.792-3.083   s-1.249-3.084-2.792-3.084c-0.186,0-0.366,0.022-0.542,0.061v-0.894c0-0.9-0.222-1.749-0.607-2.5h4.107c1.379,0,2.5,1.122,2.5,2.5   V78.417z"/><rect x="30.547" y="53.417" width="30.286" height="3"/><rect x="30.547" y="62.25" width="30.286" height="3"/><rect x="30.547" y="71.083" width="30.286" height="3"/><ellipse cx="45.69" cy="31.059" rx="5.392" ry="5.991"/><path d="M45.69,37.849c-5.085,0-9.243,4.696-9.614,10.651h19.226C54.932,42.545,50.775,37.849,45.69,37.849z"/></g><text x="0" y="115" fill="#000000" font-size="5px" font-weight="bold" font-family="'Helvetica Neue', Helvetica, Arial-Unicode, Arial, Sans-serif">Created by asianson.design</text><text x="0" y="120" fill="#000000" font-size="5px" font-weight="bold" font-family="'Helvetica Neue', Helvetica, Arial-Unicode, Arial, Sans-serif">from the Noun Project</text></svg>