<svg xmlns="http://www.w3.org/2000/svg" xmlns:xlink="http://www.w3.org/1999/xlink" xml:space="preserve" version="1.1" style="shape-rendering:geometricPrecision;text-rendering:geometricPrecision;image-rendering:optimizeQuality;" viewBox="0 0 333 416.25" x="0px" y="0px" fill-rule="evenodd" clip-rule="evenodd"><defs><style type="text/css">
   
    .fil0 {fill:black}
   
  </style></defs><g><path class="fil0" d="M118 107l25 -12c7,-4 7,-9 5,-14l-28 -64c-4,-7 -9,-9 -13,-9l-18 7c-19,11 -31,19 -37,33 -32,76 91,273 173,277 15,1 28,-7 46,-18l14 -14c2,-3 3,-9 -2,-15l-46 -54c-3,-3 -8,-5 -14,-1l-22 17c-39,-8 -92,-94 -83,-133z"/></g><text x="0" y="348" fill="#000000" font-size="5px" font-weight="bold" font-family="'Helvetica Neue', Helvetica, Arial-Unicode, Arial, Sans-serif">Created by Aulia</text><text x="0" y="353" fill="#000000" font-size="5px" font-weight="bold" font-family="'Helvetica Neue', Helvetica, Arial-Unicode, Arial, Sans-serif">from the Noun Project</text></svg>