<svg xmlns="http://www.w3.org/2000/svg" x="0px" y="0px" viewBox="0 0 100 125">
  <g transform="translate(0,-952.36218)">
    <path
      style="text-indent:0;text-transform:none;direction:ltr;block-progression:tb;baseline-shift:baseline;color:#000000;"
      d="m 80.375,1033.3622 c 8.6066,0 15.625,-7.0184 15.625,-15.625 l 0,-10.75 c 0,-8.60655 -7.0184,-15.62495 -15.625,-15.62495 l -5.8438,0 c 0.8396,-5.4701 1.7359,-10.5286 3.3438,-16.1563 0.5214,-1.7797 -1.0205,-3.8411 -2.875,-3.8438 -3.3232,0 -5.8064,2.0707 -8.0938,4.5625 -2.2871,2.4918 -4.3999,5.7205 -6.2812,9.25 -3.7626,7.0592 -6.625,15.07125 -6.625,21.18755 0,3.7917 0,7.5833 0,11.375 0,8.6066 7.0184,15.625 15.625,15.625 z m -50,0 c 8.6066,0 15.625,-7.0184 15.625,-15.625 l 0,-10.75 c 0,-8.60655 -7.0184,-15.62495 -15.625,-15.62495 l -5.8438,0 c 0.8396,-5.4701 1.7359,-10.5286 3.3438,-16.1563 0.5214,-1.7797 -1.0205,-3.8411 -2.875,-3.8438 -3.3232,0 -5.8064,2.0707 -8.0938,4.5625 -2.2871,2.4918 -4.3999,5.7205 -6.2812,9.25 C 6.8624,992.23385 4,1000.2459 4,1006.3622 c 0,3.7917 0,7.5833 0,11.375 0,8.6066 7.0184,15.625 15.625,15.625 z m 50,-6 -10.75,0 c -5.3912,0 -9.625,-4.2338 -9.625,-9.625 0,-3.7917 0,-7.5833 0,-11.375 0,-3.9953 2.4881,-11.96195 5.9062,-18.37495 1.3844,-2.5972 2.9033,-4.8204 4.375,-6.6563 -0.8804,4.1504 -1.6259,8.257 -2.25,12.6251 -0.2307,1.6897 1.2634,3.404 2.9688,3.4062 l 9.375,0 c 5.3912,0 9.625,4.23385 9.625,9.62495 l 0,10.75 c 0,5.3912 -4.2338,9.625 -9.625,9.625 z m -50,0 -10.75,0 c -5.3912,0 -9.625,-4.2338 -9.625,-9.625 0,-3.7917 0,-7.5833 0,-11.375 0,-3.9953 2.4881,-11.96195 5.9062,-18.37495 1.3844,-2.5972 2.9033,-4.8204 4.375,-6.6563 -0.8804,4.1504 -1.6259,8.257 -2.25,12.6251 -0.2307,1.6897 1.2634,3.404 2.9688,3.4062 l 9.375,0 c 5.3912,0 9.625,4.23385 9.625,9.62495 l 0,10.75 c 0,5.3912 -4.2338,9.625 -9.625,9.625 z"
      fill="#000000" fill-opacity="1" stroke="none" visibility="visible" display="inline"/>
  </g>
  <text x="0" y="115" fill="#000000" font-size="5px" font-weight="bold"
        font-family="'Helvetica Neue', Helvetica, Arial-Unicode, Arial, Sans-serif">Created by iconsphere
  </text>
  <text x="0" y="120" fill="#000000" font-size="5px" font-weight="bold"
        font-family="'Helvetica Neue', Helvetica, Arial-Unicode, Arial, Sans-serif">from the Noun Project
  </text>
</svg>
