<svg xmlns="http://www.w3.org/2000/svg" viewBox="0 0 48 60" x="0px" y="0px"><title>Artboard 14</title><g data-name="Black expanded"><path d="M38,7H10a1,1,0,0,1,0-2H38a1,1,0,0,1,0,2ZM23.6,28.68,30.73,21a1,1,0,0,0-1.46-1.36l-6.48,7-4-3.55a1,1,0,0,0-1.41.09,1,1,0,0,0,.09,1.41l4.77,4.2a1,1,0,0,0,.66.25A1,1,0,0,0,23.6,28.68ZM38,9H17a1,1,0,0,0,0,2H37v6c0,17.54-10.88,23-13,23.92C22,40,11,34.37,11,17V11h3a1,1,0,0,0,0-2H10a1,1,0,0,0-1,1v7C9,37.47,23.52,42.89,23.66,42.94h0a.88.88,0,0,0,.64,0h0C24.48,42.89,39,37.47,39,17V10A1,1,0,0,0,38,9Z"/></g><text x="0" y="63" fill="#000000" font-size="5px" font-weight="bold" font-family="'Helvetica Neue', Helvetica, Arial-Unicode, Arial, Sans-serif">Created by Muhammad Tajudin</text><text x="0" y="68" fill="#000000" font-size="5px" font-weight="bold" font-family="'Helvetica Neue', Helvetica, Arial-Unicode, Arial, Sans-serif">from the Noun Project</text></svg>