<svg xmlns="http://www.w3.org/2000/svg" xmlns:xlink="http://www.w3.org/1999/xlink" version="1.1" x="0px" y="0px" viewBox="0 0 100 125" enable-background="new 0 0 100 100" xml:space="preserve"><g><g><g><path d="M85.7,13.4h-7.5V6c0-0.5-0.4-1-1-1H14.3c-0.5,0-1,0.4-1,1v79.6c0,0.5,0.4,1,1,1h7.5V94c0,0.5,0.4,1,1,1h40     c0.1,0,0.2,0,0.3-0.1c0.1,0,0.1,0,0.2-0.1c0,0,0,0,0.1,0c0,0,0.1-0.1,0.1-0.1l22.9-22.9v0c0,0,0,0,0.1-0.1c0,0,0,0,0-0.1     c0,0,0,0,0-0.1c0,0,0.1-0.1,0.1-0.1c0-0.1,0.1-0.2,0.1-0.4V14.4C86.6,13.9,86.2,13.4,85.7,13.4z M21.8,14.4v70.2h-6.5V6.9h61v6.5     H22.8C22.2,13.4,21.8,13.9,21.8,14.4z M63.7,91.7V72.1h19.6L63.7,91.7z M84.7,70.1h-22c-0.5,0-1,0.4-1,1v22h-38V15.4h61V70.1z"/></g></g><g><g><path d="M52.6,47.6h-21c-0.5,0-1,0.4-1,1v17.6c0,0.5,0.4,1,1,1h21c0.5,0,1-0.4,1-1V48.6C53.6,48.1,53.1,47.6,52.6,47.6z      M32.6,49.6h19v8.6l-4.4-4.4c-0.4-0.4-1-0.4-1.4,0l-6.6,6.6l-2-2c-0.4-0.4-1-0.4-1.4,0l-3.3,3.3V49.6z M51.6,65.2h-19v-0.7l4-4     l2,2c0.4,0.4,1,0.4,1.4,0l6.6-6.6l5,5V65.2z"/></g><g><path d="M37.8,57.1c-1.6,0-3-1.3-3-3c0-1.6,1.3-3,3-3c1.6,0,3,1.3,3,3C40.7,55.8,39.4,57.1,37.8,57.1z M37.8,53.1     c-0.6,0-1,0.5-1,1s0.5,1,1,1c0.6,0,1-0.5,1-1S38.3,53.1,37.8,53.1z"/></g></g><g><path d="M78.8,52.5H58.9c-0.5,0-1-0.4-1-1c0-0.5,0.4-1,1-1h19.9c0.5,0,1,0.4,1,1C79.7,52,79.3,52.5,78.8,52.5z"/></g><g><path d="M78.8,57.7H58.9c-0.5,0-1-0.4-1-1s0.4-1,1-1h19.9c0.5,0,1,0.4,1,1S79.3,57.7,78.8,57.7z"/></g><g><path d="M73.2,63.1H58.9c-0.5,0-1-0.4-1-1c0-0.5,0.4-1,1-1h14.3c0.5,0,1,0.4,1,1C74.2,62.6,73.7,63.1,73.2,63.1z"/></g><g><path d="M51.5,75.3H31.6c-0.5,0-1-0.4-1-1s0.4-1,1-1h19.9c0.5,0,1,0.4,1,1S52.1,75.3,51.5,75.3z"/></g><g><path d="M51.5,80.6H31.6c-0.5,0-1-0.4-1-1c0-0.5,0.4-1,1-1h19.9c0.5,0,1,0.4,1,1C52.5,80.2,52.1,80.6,51.5,80.6z"/></g><g><path d="M45.9,85.9H31.6c-0.5,0-1-0.4-1-1s0.4-1,1-1h14.3c0.5,0,1,0.4,1,1S46.5,85.9,45.9,85.9z"/></g><g><g><path d="M54.2,20.2c-3,0-5.5,2.5-5.5,5.6c0,3.1,2.5,5.6,5.5,5.6c3,0,5.5-2.5,5.5-5.6C59.7,22.7,57.2,20.2,54.2,20.2z M53.8,25.8     c0-0.4,0.2-0.7,0.4-0.7s0.4,0.3,0.4,0.7c0,0.4-0.2,0.7-0.4,0.7S53.8,26.2,53.8,25.8z M54.2,29.5c-0.5,0-0.9-0.1-1.3-0.3     c0.3-0.5,0.8-0.8,1.3-0.8c0.5,0,1,0.3,1.3,0.8C55.1,29.4,54.7,29.5,54.2,29.5z M57,28c-0.2-0.3-0.5-0.6-0.8-0.8     c0.2-0.4,0.3-0.9,0.3-1.4c0-1.5-1.1-2.7-2.4-2.7s-2.4,1.2-2.4,2.7c0,0.5,0.1,1,0.3,1.4c-0.3,0.2-0.6,0.5-0.8,0.8     c-0.5-0.6-0.7-1.4-0.7-2.2c0-2,1.6-3.7,3.5-3.7c1.9,0,3.5,1.6,3.5,3.7C57.8,26.6,57.5,27.4,57,28z"/></g></g><g><path d="M73.2,36.4H35.8c-0.5,0-1-0.4-1-1c0-0.5,0.4-1,1-1h37.4c0.5,0,1,0.4,1,1C74.2,36,73.7,36.4,73.2,36.4z"/></g><g><path d="M63.8,40.9H45.2c-0.5,0-1-0.4-1-1s0.4-1,1-1h18.6c0.5,0,1,0.4,1,1S64.3,40.9,63.8,40.9z"/></g></g><text x="0" y="115" fill="#000000" font-size="5px" font-weight="bold" font-family="'Helvetica Neue', Helvetica, Arial-Unicode, Arial, Sans-serif">Created by Garrett Knoll</text><text x="0" y="120" fill="#000000" font-size="5px" font-weight="bold" font-family="'Helvetica Neue', Helvetica, Arial-Unicode, Arial, Sans-serif">from the Noun Project</text></svg>