<svg xmlns="http://www.w3.org/2000/svg" xmlns:xlink="http://www.w3.org/1999/xlink" version="1.1" x="0px" y="0px" viewBox="0 0 45 56.25" enable-background="new 0 0 45 45" xml:space="preserve"><path d="M34.732,30.523c1.441-1.39,1.595-4.091,0.931-5.73c0.105-1.183,0.152-2.237,0.171-3.08c1.323-0.402,2.292-1.618,2.292-3.073  c0-1.782-1.445-3.227-3.228-3.227h-0.285c0-5.348-5.423-12.91-12.113-12.91s-12.113,7.563-12.113,12.91h-0.285  c-1.782,0-3.228,1.444-3.228,3.227c0,1.455,0.969,2.671,2.292,3.073c0.019,0.843,0.066,1.897,0.171,3.08  c-0.664,1.64-0.51,4.341,0.931,5.73c0.84,3.37,2.301,6.691,4.841,8.571c2.273,1.683,4.929,3.402,7.392,3.402s5.118-1.72,7.392-3.402  C32.432,37.215,33.893,33.894,34.732,30.523z M10.771,23.43c-0.036-0.571-0.059-1.098-0.073-1.563h23.605  c-0.014,0.465-0.036,0.991-0.072,1.563c-0.149-0.011-0.307,0.005-0.471,0.051C31.102,24.24,22.5,26.329,22.5,26.329  s-8.602-2.089-11.259-2.849C11.077,23.435,10.92,23.419,10.771,23.43z M28.871,29.651c-2.801-0.675-3.75-1.709-3.75-1.709  s6.455-1.994,7.499-1.994C33.665,25.948,32.82,30.602,28.871,29.651z M12.38,25.948c1.044,0,7.499,1.994,7.499,1.994  s-0.949,1.034-3.75,1.709C12.18,30.602,11.336,25.948,12.38,25.948z M28.988,37.874c-2.074,1.535-4.467,3.104-6.488,3.104  s-4.414-1.569-6.488-3.104c-1.908-1.412-3.134-3.843-3.925-6.474c3.711,0.781,8.301-1.274,10.413-1.274s6.703,2.057,10.416,1.273  C32.125,34.029,30.897,36.461,28.988,37.874z"/><text x="0" y="60" fill="#000000" font-size="5px" font-weight="bold" font-family="'Helvetica Neue', Helvetica, Arial-Unicode, Arial, Sans-serif">Created by Lonewolf Design</text><text x="0" y="65" fill="#000000" font-size="5px" font-weight="bold" font-family="'Helvetica Neue', Helvetica, Arial-Unicode, Arial, Sans-serif">from the Noun Project</text></svg>