<svg id="Capa_1" enable-background="new 0 0 508.8 508.8" height="512" viewBox="0 0 508.8 508.8" width="512" xmlns="http://www.w3.org/2000/svg"><g><path d="m501.3 310.901c-4.143 0-7.5 3.358-7.5 7.5v57.29c0 .618-.503 1.12-1.12 1.12h-211.28c-4.143 0-7.5 3.358-7.5 7.5s3.357 7.5 7.5 7.5h211.28c8.889 0 16.12-7.231 16.12-16.12v-57.29c0-4.142-3.358-7.5-7.5-7.5z"/><path d="m508.8 158.801c0-8.888-7.231-16.12-16.12-16.12h-186.687c-3.323-30.727-27.04-54.632-55.73-54.632h-16.52c-.013 0-.026.002-.039.002h-172.475c-33.761 0-61.229 23.247-61.229 51.82v263.89c0 5.363 3.211 10.129 8.179 12.142 4.967 2.012 10.587.826 14.307-3.012l17.074-17.545 18.524 20.985c2.506 2.831 6.081 4.418 9.806 4.418.555 0 1.113-.035 1.672-.107 4.308-.553 8.053-3.196 10.02-7.075l17.073-33.726 25.211 34.151c2.809 3.805 7.476 5.805 12.161 5.218 4.691-.586 8.714-3.671 10.493-8.037l5.903-14.401 14.402 15.472c3.698 3.963 9.344 5.243 14.391 3.255 5.038-1.985 8.294-6.767 8.294-12.181v-11.51h59.89c4.143 0 7.5-3.358 7.5-7.5s-3.357-7.5-7.5-7.5h-59.89v-27.41c0-4.142-3.357-7.5-7.5-7.5s-7.5 3.358-7.5 7.5v49.086l-13.137-14.112c-3.063-3.283-7.523-4.762-11.941-3.954-4.41.806-8.06 3.766-9.761 7.916l-5.749 14.024-26.36-35.708c-2.438-3.295-6.329-5.055-10.414-4.712-4.087.346-7.631 2.738-9.479 6.394l-18.204 35.959-18.029-20.423c-2.41-2.722-5.877-4.331-9.512-4.414-3.647-.064-7.167 1.367-9.688 3.965l-15.236 15.657v-259.205c0-20.303 20.738-36.82 46.229-36.82h129.466c-11.223 9.398-18.186 22.434-18.186 36.82v175.53c0 4.142 3.357 7.5 7.5 7.5s7.5-3.358 7.5-7.5v-66.296h306.291v35.296c0 4.142 3.357 7.5 7.5 7.5s7.5-3.358 7.5-7.5zm-15 0v24.017h-306.29v-25.137h305.17c.617 0 1.12.503 1.12 1.12zm-260.06-55.75c.013 0 .026-.002.039-.002h16.484c20.484 0 37.516 17.203 40.63 39.632h-103.383v-2.81c0-20.302 20.739-36.82 46.23-36.82zm-46.23 131.054v-36.287h306.29v36.287z"/><path d="m447.432 354.401c8.806 0 15.969-7.163 15.969-15.968v-29.325c0-8.805-7.163-15.968-15.969-15.968h-59.063c-8.805 0-15.968 7.164-15.968 15.968v29.325c0 8.805 7.163 15.968 15.968 15.968zm-60.032-15.968v-29.325c0-.534.435-.968.968-.968h59.063c.534 0 .969.435.969.968v29.325c0 .534-.435.968-.969.968h-59.063c-.533 0-.968-.434-.968-.968z"/></g></svg>